<svg id="Layer_1" data-name="Layer 1" xmlns="http://www.w3.org/2000/svg" viewBox="0 0 70 70"><defs><style>.cls-1{fill:none;stroke:#000;stroke-linecap:round;stroke-linejoin:round;stroke-width:2.17px;}</style></defs><title>Home icons_Brza Dostava_ide na 35x35_SVG-01-01</title><path class="cls-1" d="M59.6,51.24h5.46a3,3,0,0,0,3-3V39.78a7.63,7.63,0,0,0-1.26-4.19l-2.28-3.46H46c-.64,0-1.17-.52-1.17-1.44v-15A1.85,1.85,0,0,0,43,13.83H11.79"/><line class="cls-1" x1="28.61" y1="51.24" x2="46.23" y2="51.24"/><line class="cls-1" x1="8.57" y1="51.24" x2="15.22" y2="51.24"/><path class="cls-1" d="M52.91,45.33a6.46,6.46,0,1,0,6.45,6.45A6.46,6.46,0,0,0,52.91,45.33Z"/><path class="cls-1" d="M22,45.33a6.46,6.46,0,1,0,6.45,6.45A6.46,6.46,0,0,0,22,45.33Z"/><path class="cls-1" d="M64.56,32.13,58.4,20.07a3.32,3.32,0,0,0-2.95-1.81H44.85"/><line class="cls-1" x1="5.65" y1="21.83" x2="22.26" y2="21.83"/><line class="cls-1" x1="1.2" y1="30.62" x2="17.99" y2="30.62"/><line class="cls-1" x1="2.7" y1="40.86" x2="13.26" y2="40.86"/></svg>