<svg id="Capa_1" data-name="Capa 1" xmlns="http://www.w3.org/2000/svg" viewBox="0 0 27 18.5"><defs><style>.cls-1{fill:#fff;}</style></defs><title>Email icon_footer_ide na 27x27_SVG</title><path class="cls-1" d="M24.63,4.25H2.37A2.38,2.38,0,0,0,0,6.62V20.38a2.38,2.38,0,0,0,2.37,2.37H24.63A2.38,2.38,0,0,0,27,20.38V6.62A2.38,2.38,0,0,0,24.63,4.25Zm-.31,1.58L24,6.1l-9.56,8a1.48,1.48,0,0,1-1.88,0L3,6.1l-.32-.27ZM1.58,7l7.79,6.48L1.58,18.64Zm23,14.19H2.37a.79.79,0,0,1-.77-.64l9-6,.91.75a3,3,0,0,0,3.9,0l.91-.75,9,6A.79.79,0,0,1,24.63,21.17Zm.79-2.53-7.79-5.18L25.42,7Z" transform="translate(0 -4.25)"/></svg>