<?xml version="1.0" encoding="utf-8"?>
<!-- Generator: Adobe Illustrator 23.0.1, SVG Export Plug-In . SVG Version: 6.00 Build 0)  -->
<svg version="1.1" id="Layer_1" xmlns="http://www.w3.org/2000/svg" xmlns:xlink="http://www.w3.org/1999/xlink" x="0px" y="0px"
	 viewBox="0 0 201.343 53.851" enable-background="new 0 0 201.343 53.851" xml:space="preserve">
<g>
	<g>
		<path fill="#FFFFFF" d="M78.36,28.585l-3.28,3.419v6.177h-5.618V13.754h5.618v11.41l10.817-11.41h6.281L82.059,24.641
			l10.713,13.54h-6.595L78.36,28.585z"/>
		<path fill="#FFFFFF" d="M95.713,12.288h5.444v25.893h-5.444V12.288z"/>
		<path fill="#FFFFFF" d="M104.638,13.754c0-1.709,1.361-3.035,3.384-3.035c2.024,0,3.385,1.256,3.385,2.93
			c0,1.814-1.361,3.14-3.385,3.14C105.999,16.789,104.638,15.463,104.638,13.754z M105.301,19.406h5.444v18.774h-5.444V19.406z"/>
		<path fill="#FFFFFF" d="M123.899,30.817l-2.617,2.582v4.782h-5.444V12.288h5.444v14.656l7.956-7.537h6.491l-7.816,7.957
			l8.514,10.817h-6.595L123.899,30.817z"/>
		<path fill="#ED7700" d="M161.441,31.655c0,4.153-3.07,6.526-9.177,6.526h-11.236V13.754h10.538c5.444,0,8.584,2.303,8.584,6.281
			c0,2.792-1.5,4.642-3.734,5.549C159.557,26.281,161.441,28.34,161.441,31.655z M143.61,15.883v8.863h7.782
			c3.908,0,6.176-1.501,6.176-4.432c0-2.932-2.267-4.432-6.176-4.432H143.61z M158.859,31.445c0-3.175-2.337-4.571-6.63-4.571
			h-8.619v9.177h8.619C156.522,36.052,158.859,34.655,158.859,31.445z"/>
		<path fill="#ED7700" d="M164.457,29.003c0-5.443,3.978-9.316,9.352-9.316c5.374,0,9.317,3.873,9.317,9.316
			c0,5.444-3.943,9.352-9.317,9.352C168.435,38.355,164.457,34.446,164.457,29.003z M180.614,29.003
			c0-4.292-2.896-7.154-6.805-7.154c-3.908,0-6.84,2.862-6.84,7.154c0,4.293,2.931,7.154,6.84,7.154
			C177.717,36.157,180.614,33.295,180.614,29.003z"/>
		<path fill="#ED7700" d="M198.517,38.181l-5.827-7.677l-5.863,7.677h-2.791l7.258-9.422l-6.909-8.933h2.791l5.514,7.188
			l5.513-7.188h2.722l-6.91,8.933l7.328,9.422H198.517z"/>
	</g>
	<g>
		<polygon fill="#ED7700" points="24.815,53.851 19.657,18.782 54.522,28.933 46.361,35.778 49.523,39.236 46.496,42.004 
			40.444,35.387 46.002,30.725 24.646,24.507 27.805,45.989 33.659,41.079 39.763,47.756 36.736,50.524 33.283,46.748 		"/>
	</g>
	<g>
		<path fill="#FFFFFF" d="M20.718,49.938h-7.091C6.112,49.938,0,43.826,0,36.312V13.626C0,6.112,6.112,0,13.626,0h22.686
			c7.514,0,13.626,6.112,13.626,13.626v9.801H44.81v-9.801c0-4.686-3.813-8.498-8.498-8.498H13.626
			c-4.686,0-8.498,3.812-8.498,8.498v22.686c0,4.686,3.813,8.498,8.498,8.498h7.091V49.938z"/>
	</g>
	<g>
		
			<rect x="13.889" y="12.105" transform="matrix(0.7071 -0.7071 0.7071 0.7071 -5.8716 15.6372)" fill="#FFFFFF" width="4.103" height="5.603"/>
	</g>
	<g>
		
			<rect x="23.081" y="12.236" transform="matrix(0.7071 -0.7071 0.7071 0.7071 -2.6558 22.1628)" fill="#FFFFFF" width="4.687" height="4.103"/>
	</g>
	<g>
		
			<rect x="12.462" y="22.626" transform="matrix(0.7071 -0.7071 0.7071 0.7071 -13.0458 17.8592)" fill="#FFFFFF" width="5.146" height="4.103"/>
	</g>
</g>
</svg>
