<svg id="Layer_1" data-name="Layer 1" xmlns="http://www.w3.org/2000/svg" viewBox="0 0 180 48"><defs><style>.cls-1{fill:#212121;}.cls-2{fill:#ed7700;}</style></defs><title>Header logo_sirina 180px_SVG</title><path class="cls-1" d="M69.81,19.87l-2.88,3v5.41H62V6.86h4.92v10l9.49-10h5.51l-8.88,9.55,9.4,11.87H76.66Z"/><path class="cls-1" d="M85,5.58H89.8v22.7H85Z"/><path class="cls-1" d="M92.85,6.86a2.73,2.73,0,0,1,3-2.66,2.68,2.68,0,0,1,3,2.57,3,3,0,0,1-5.94.09Zm.58,5h4.78V28.28H93.43Z"/><path class="cls-1" d="M109.74,21.83l-2.29,2.26v4.19h-4.78V5.58h4.78V18.43l7-6.61h5.69l-6.85,7,7.47,9.48h-5.79Z"/><path class="cls-2" d="M142.66,22.56c0,3.64-2.69,5.72-8,5.72h-9.85V6.86H134c4.78,0,7.53,2,7.53,5.51a5,5,0,0,1-3.27,4.87A5.1,5.1,0,0,1,142.66,22.56ZM127,8.73V16.5h6.82c3.43,0,5.41-1.31,5.41-3.88s-2-3.89-5.41-3.89ZM140.4,22.38c0-2.79-2.05-4-5.82-4H127v8.05h7.55C138.35,26.42,140.4,25.19,140.4,22.38Z"/><path class="cls-2" d="M145.31,20.24a8.19,8.19,0,0,1,16.37,0,8.19,8.19,0,1,1-16.37,0Zm14.16,0c0-3.77-2.54-6.28-6-6.28a5.9,5.9,0,0,0-6,6.28,5.89,5.89,0,0,0,6,6.27C156.93,26.51,159.47,24,159.47,20.24Z"/><path class="cls-2" d="M175.17,28.28l-5.11-6.73-5.14,6.73h-2.45L168.84,20l-6.06-7.83h2.45l4.83,6.3,4.84-6.3h2.38L171.22,20l6.43,8.26Z"/><polygon class="cls-2" points="22.86 47.61 18.33 16.86 48.91 25.76 41.75 31.76 44.52 34.79 41.87 37.22 36.56 31.42 41.44 27.33 22.71 21.88 25.48 40.72 30.61 36.41 35.97 42.27 33.31 44.69 30.28 41.38 22.86 47.61"/><path class="cls-1" d="M19.26,44.18H13.05a12,12,0,0,1-12-12V12.34A12,12,0,0,1,13.05.39H32.94a12,12,0,0,1,12,12v8.59h-4.5V12.34a7.46,7.46,0,0,0-7.45-7.45H13.05a7.46,7.46,0,0,0-7.46,7.45V32.23a7.46,7.46,0,0,0,7.46,7.45h6.21Z"/><rect class="cls-1" x="13.28" y="11" width="3.6" height="4.91" transform="translate(-5.1 14.6) rotate(-45)"/><rect class="cls-1" x="21.34" y="11.12" width="4.11" height="3.6" transform="translate(-2.28 20.32) rotate(-45)"/><rect class="cls-1" x="12.03" y="20.23" width="4.51" height="3.6" transform="translate(-11.39 16.55) rotate(-45)"/><path class="cls-1" d="M66.76,35.48l-2.17,4.89h-.36l-2.18-4.89h.39l2,4.43,2-4.43Z"/><path class="cls-1" d="M71.83,39H69l-.62,1.38H68l2.25-4.89h.36l2.25,4.89h-.38Zm-.14-.3-1.28-2.82-1.28,2.82Z"/><path class="cls-1" d="M78.17,39.11c0,.69-.55,1.29-1.76,1.29a2.53,2.53,0,0,1-1.79-.66l.17-.27a2.3,2.3,0,0,0,1.61.62c1,0,1.41-.43,1.41-1,0-1.47-3-.59-3-2.39,0-.69.53-1.3,1.73-1.3a2.66,2.66,0,0,1,1.48.44l-.14.29a2.39,2.39,0,0,0-1.34-.41c-.95,0-1.38.44-1.38,1C75.11,38.2,78.17,37.34,78.17,39.11Zm-1.86-4-.88-.83h.35l.72.61.73-.61h.35l-.88.83Z"/><path class="cls-1" d="M83.8,39H81l-.62,1.38H80l2.25-4.89h.36l2.25,4.89h-.38Zm-.14-.3-1.28-2.82L81.1,38.69Z"/><path class="cls-1" d="M91.73,38l-1.09,1.12v1.29h-.36V35.48h.36v3.14l3-3.14h.43L92,37.7l2.3,2.67h-.43Z"/><path class="cls-1" d="M96.47,38.29V35.48h.36v2.8c0,1.22.59,1.8,1.61,1.8s1.6-.58,1.6-1.8v-2.8h.36v2.81a2,2,0,1,1-3.93,0Z"/><path class="cls-1" d="M107.18,37.13c0,1-.75,1.64-2,1.64h-1.39v1.6h-.36V35.48h1.75C106.43,35.48,107.18,36.09,107.18,37.13Zm-.37,0c0-.85-.56-1.33-1.61-1.33h-1.39v2.65h1.39C106.25,38.45,106.81,38,106.81,37.13Z"/><path class="cls-1" d="M109.37,37.92a2.55,2.55,0,1,1,2.55,2.48A2.45,2.45,0,0,1,109.37,37.92Zm4.73,0a2.19,2.19,0,1,0-2.18,2.16A2.12,2.12,0,0,0,114.1,37.92Z"/><path class="cls-1" d="M120.85,35.48l-2.18,4.89h-.36l-2.18-4.89h.39l2,4.43,2-4.43Z"/><path class="cls-1" d="M123,35.48h.36v4.89H123Z"/><path class="cls-1" d="M130.47,35.48v4.89h-.29l-3.34-4.25v4.25h-.35V35.48h.3l3.32,4.25V35.48Z"/><path class="cls-1" d="M136.59,39h-2.83l-.63,1.38h-.38L135,35.48h.36l2.25,4.89h-.39Zm-.13-.3-1.29-2.82-1.28,2.82Z"/><path class="cls-1" d="M147.06,35.48v4.89h-.29l-3.34-4.25v4.25h-.35V35.48h.3l3.32,4.25V35.48Z"/><path class="cls-1" d="M153.18,39h-2.83l-.63,1.38h-.38l2.25-4.89H152l2.25,4.89h-.39Zm-.13-.3-1.29-2.82-1.27,2.82Z"/><path class="cls-1" d="M161.12,38,160,39.08v1.29h-.36V35.48H160v3.14l3.05-3.14h.43l-2.15,2.22,2.3,2.67h-.43Z"/><path class="cls-1" d="M166,35.48h.36v4.57h2.82v.32H166Z"/><path class="cls-1" d="M171.46,35.48h.35v4.89h-.35Z"/><path class="cls-1" d="M176.37,38l-1.1,1.12v1.29h-.36V35.48h.36v3.14l3-3.14h.44L176.6,37.7l2.3,2.67h-.43Z"/></svg>