<?xml version="1.0" encoding="utf-8"?>
<!-- Generator: Adobe Illustrator 23.0.1, SVG Export Plug-In . SVG Version: 6.00 Build 0)  -->
<svg version="1.1" id="Layer_1" xmlns="http://www.w3.org/2000/svg" xmlns:xlink="http://www.w3.org/1999/xlink" x="0px" y="0px"
	 viewBox="0 0 252.837 67.624" enable-background="new 0 0 252.837 67.624" xml:space="preserve">
<g>
	<g>
		<path fill="#212121" d="M98.401,34.895l-4.119,4.294v7.756h-7.055V16.271h7.055V30.6l13.584-14.329h7.887l-12.707,13.672
			l13.453,17.003h-8.282L98.401,34.895z"/>
		<path fill="#212121" d="M120.191,14.43h6.836v32.515h-6.836V14.43z"/>
		<path fill="#212121" d="M131.4,16.271c0-2.146,1.709-3.812,4.25-3.812c2.542,0,4.251,1.577,4.251,3.68
			c0,2.278-1.709,3.944-4.251,3.944C133.109,20.083,131.4,18.418,131.4,16.271z M132.232,23.37h6.836v23.576h-6.836V23.37z"/>
		<path fill="#212121" d="M155.586,37.698l-3.287,3.243v6.004h-6.836V14.43h6.836v18.404l9.991-9.465h8.151l-9.815,9.992
			l10.692,13.584h-8.282L155.586,37.698z"/>
		<path fill="#ED7700" d="M202.731,38.751c0,5.215-3.856,8.195-11.524,8.195h-14.11V16.271h13.234c6.836,0,10.78,2.892,10.78,7.887
			c0,3.506-1.884,5.829-4.688,6.968C200.364,32.003,202.731,34.587,202.731,38.751z M180.339,18.945v11.13h9.772
			c4.908,0,7.755-1.885,7.755-5.565c0-3.682-2.847-5.565-7.755-5.565H180.339z M199.488,38.487c0-3.988-2.935-5.74-8.325-5.74
			h-10.823v11.524h10.823C196.553,44.272,199.488,42.519,199.488,38.487z"/>
		<path fill="#ED7700" d="M206.517,35.42c0-6.835,4.996-11.699,11.744-11.699c6.748,0,11.7,4.864,11.7,11.699
			c0,6.836-4.952,11.744-11.7,11.744C211.513,47.164,206.517,42.256,206.517,35.42z M226.806,35.42c0-5.389-3.637-8.984-8.545-8.984
			s-8.589,3.594-8.589,8.984c0,5.39,3.681,8.984,8.589,8.984S226.806,40.81,226.806,35.42z"/>
		<path fill="#ED7700" d="M249.288,46.946l-7.317-9.64l-7.362,9.64h-3.505l9.114-11.832l-8.676-11.218h3.505l6.924,9.026
			l6.923-9.026h3.419l-8.677,11.218l9.202,11.832H249.288z"/>
	</g>
	<g>
		<polygon fill="#ED7700" points="31.162,67.624 24.684,23.585 68.466,36.333 58.218,44.929 62.189,49.27 58.387,52.746 
			50.788,44.437 57.767,38.584 30.949,30.774 34.917,57.751 42.267,51.586 49.933,59.97 46.131,63.446 41.796,58.704 		"/>
	</g>
	<g>
		<path fill="#212121" d="M26.016,62.71h-8.905C7.676,62.71,0,55.034,0,45.599V17.111C0,7.675,7.676,0,17.111,0h28.488
			C55.034,0,62.71,7.675,62.71,17.111v12.308h-6.439V17.111c0-5.884-4.788-10.671-10.672-10.671H17.111
			c-5.884,0-10.672,4.787-10.672,10.671v28.489c0,5.884,4.788,10.671,10.672,10.671h8.905V62.71z"/>
	</g>
	<g>
		
			<rect x="17.441" y="15.201" transform="matrix(0.7071 -0.7071 0.7071 0.7071 -7.3732 19.6365)" fill="#212121" width="5.152" height="7.036"/>
	</g>
	<g>
		
			<rect x="28.984" y="15.365" transform="matrix(0.7071 -0.7071 0.7071 0.7071 -3.335 27.831)" fill="#212121" width="5.886" height="5.152"/>
	</g>
	<g>
		
			<rect x="15.649" y="28.413" transform="matrix(0.7071 -0.7071 0.7071 0.7071 -16.3823 22.4268)" fill="#212121" width="6.462" height="5.152"/>
	</g>
	<g>
		<path fill="#FFFFFF" d="M56.903,55.28"/>
	</g>
</g>
</svg>
