<?xml version="1.0" encoding="utf-8"?>
<!-- Generator: Adobe Illustrator 23.0.1, SVG Export Plug-In . SVG Version: 6.00 Build 0)  -->
<svg version="1.1" id="Layer_1" xmlns="http://www.w3.org/2000/svg" xmlns:xlink="http://www.w3.org/1999/xlink" x="0px" y="0px"
	 viewBox="0 0 165.6 34.7" style="enable-background:new 0 0 165.6 34.7;" xml:space="preserve">
<style type="text/css">
	.st0{fill:#212121;}
	.st1{fill:#ED7700;}
</style>
<g>
	<g>
		<path class="st0" d="M11.2,22.4l-4.1,4.3v7.8H0V3.8h7.1v14.3L20.6,3.8h7.9L15.8,17.5l13.5,17H21L11.2,22.4z"/>
		<path class="st0" d="M33,2h6.8v32.5H33V2z"/>
		<path class="st0" d="M44.2,3.8c0-2.1,1.7-3.8,4.3-3.8c2.5,0,4.3,1.6,4.3,3.7c0,2.3-1.7,3.9-4.3,3.9C45.9,7.6,44.2,6,44.2,3.8z
			 M45,10.9h6.8v23.6H45V10.9z"/>
		<path class="st0" d="M68.4,25.2l-3.3,3.2v6h-6.8V2h6.8v18.4l10-9.5h8.2l-9.8,10l10.7,13.6h-8.3L68.4,25.2z"/>
		<path class="st1" d="M115.5,26.3c0,5.2-3.9,8.2-11.5,8.2H89.9V3.8h13.2c6.8,0,10.8,2.9,10.8,7.9c0,3.5-1.9,5.8-4.7,7
			C113.1,19.5,115.5,22.1,115.5,26.3z M93.1,6.5v11.1h9.8c4.9,0,7.8-1.9,7.8-5.6c0-3.7-2.8-5.6-7.8-5.6H93.1z M112.3,26
			c0-4-2.9-5.7-8.3-5.7H93.1v11.5h10.8C109.3,31.8,112.3,30.1,112.3,26z"/>
		<path class="st1" d="M119.3,23c0-6.8,5-11.7,11.7-11.7c6.7,0,11.7,4.9,11.7,11.7c0,6.8-5,11.7-11.7,11.7
			C124.3,34.7,119.3,29.8,119.3,23z M139.6,23c0-5.4-3.6-9-8.5-9c-4.9,0-8.6,3.6-8.6,9s3.7,9,8.6,9C135.9,31.9,139.6,28.4,139.6,23z
			"/>
		<path class="st1" d="M162.1,34.5l-7.3-9.6l-7.4,9.6h-3.5l9.1-11.8l-8.7-11.2h3.5l6.9,9l6.9-9h3.4l-8.7,11.2l9.2,11.8H162.1z"/>
	</g>
</g>
</svg>
