<svg xmlns="http://www.w3.org/2000/svg" viewBox="0 0 252.7 67.6"><defs><style>.cls-1{fill:#ed7700;}.cls-2{fill:#212121;}.cls-3{fill:#fff;}</style></defs><title>Asset 1</title><g id="Layer_2" data-name="Layer 2"><g id="Layer_1-2" data-name="Layer 1"><path class="cls-1" d="M209.2,64.5H133.5a10.93,10.93,0,0,1-10.9-10.9h0a10.93,10.93,0,0,1,10.9-10.9h75.7a10.93,10.93,0,0,1,10.9,10.9h0A10.93,10.93,0,0,1,209.2,64.5Z"/><path class="cls-2" d="M98.4,24.3l-4.1,4.3v7.8H87.2V5.7h7.1V20L107.9,5.7h7.9L103.1,19.4l13.5,17h-8.3Z"/><path class="cls-2" d="M120.2,3.9H127V36.4h-6.8Z"/><path class="cls-2" d="M131.4,5.7c0-2.1,1.7-3.8,4.3-3.8S140,3.5,140,5.6c0,2.3-1.7,3.9-4.3,3.9S131.4,7.9,131.4,5.7Zm.8,7.1H139V36.4h-6.8Z"/><path class="cls-2" d="M155.6,27.1l-3.3,3.2v6h-6.8V3.9h6.8V22.3l10-9.5h8.2l-9.8,10,10.7,13.6h-8.3Z"/><path class="cls-1" d="M202.7,28.2c0,5.2-3.9,8.2-11.5,8.2H177.1V5.7h13.2c6.8,0,10.8,2.9,10.8,7.9a7.24,7.24,0,0,1-4.7,7C200.4,21.4,202.7,24,202.7,28.2ZM180.3,8.4V19.5h9.8c4.9,0,7.8-1.9,7.8-5.6s-2.8-5.6-7.8-5.6h-9.8Zm19.2,19.5c0-4-2.9-5.7-8.3-5.7H180.4V33.7h10.8C196.5,33.7,199.5,32,199.5,27.9Z"/><path class="cls-1" d="M206.5,24.9a11.7,11.7,0,0,1,23.4,0,11.7,11.7,0,0,1-23.4,0Zm20.3,0c0-5.4-3.6-9-8.5-9s-8.6,3.6-8.6,9,3.7,9,8.6,9S226.8,30.3,226.8,24.9Z"/><path class="cls-1" d="M249.3,36.4,242,26.8l-7.4,9.6h-3.5l9.1-11.8-8.7-11.3H235l6.9,9,6.9-9h3.4l-8.7,11.2,9.2,11.8h-3.4Z"/><polygon class="cls-1" points="31.2 67.6 24.7 23.6 68.5 36.4 58.2 44.9 62.2 49.3 58.4 52.8 50.8 44.5 57.8 38.6 30.9 30.8 34.9 57.8 42.3 51.6 49.9 60 46.1 63.5 41.8 58.7 31.2 67.6"/><path class="cls-2" d="M26,62.7H17.1A17.16,17.16,0,0,1,0,45.6V17.1A17.16,17.16,0,0,1,17.1,0H45.6A17.16,17.16,0,0,1,62.7,17.1V29.4H56.3V17.1A10.71,10.71,0,0,0,45.6,6.4H17.1A10.71,10.71,0,0,0,6.4,17.1V45.6A10.71,10.71,0,0,0,17.1,56.3H26Z"/><rect class="cls-2" x="17.38" y="15.22" width="5.2" height="7" transform="translate(-7.39 19.61) rotate(-45)"/><rect class="cls-2" x="29.02" y="15.37" width="5.9" height="5.2" transform="translate(-3.34 27.87) rotate(-45)"/><rect class="cls-2" x="15.6" y="28.42" width="6.5" height="5.2" transform="translate(-16.41 22.42) rotate(-45)"/><path class="cls-3" d="M138.3,56.8l1.1-1.5a3.68,3.68,0,0,0,2.6,1.1c.7,0,1.1-.3,1.1-.7,0-1.1-4.5-.2-4.5-3.3,0-1.3,1.1-2.5,3.2-2.5a5.24,5.24,0,0,1,3.3,1.1L144,52.5a3.41,3.41,0,0,0-2.3-.8q-.9,0-.9.6c0,1,4.5.3,4.5,3.3,0,1.6-1.2,2.7-3.3,2.7A7.11,7.11,0,0,1,138.3,56.8Z"/><path class="cls-3" d="M162.6,57.9V54.7h-3.3v3.2h-2.1v-8h2.1v3h3.3v-3h2.1v8Z"/><path class="cls-3" d="M176.8,53.9a4,4,0,0,1,4.3-4.1,4.1,4.1,0,1,1,0,8.2A4,4,0,0,1,176.8,53.9Zm6.5,0a2.2,2.2,0,1,0-2.2,2.3A2.18,2.18,0,0,0,183.3,53.9Z"/><path class="cls-3" d="M197.5,57.9v-8h4a2.6,2.6,0,0,1,2.8,2.7,2.65,2.65,0,0,1-2.8,2.7h-1.9V58h-2.1Zm4.7-5.3c0-.6-.4-.9-1-.9h-1.7v1.7h1.7C201.8,53.4,202.2,53.1,202.2,52.6Z"/></g></g></svg>