<?xml version="1.0" encoding="utf-8"?>
<!-- Generator: Adobe Illustrator 23.0.1, SVG Export Plug-In . SVG Version: 6.00 Build 0)  -->
<svg version="1.1" id="Layer_1" xmlns="http://www.w3.org/2000/svg" xmlns:xlink="http://www.w3.org/1999/xlink" x="0px" y="0px"
	 viewBox="0 0 361.8 141.7" style="enable-background:new 0 0 361.8 141.7;" xml:space="preserve">
<style type="text/css">
	.st0{fill:#ED7700;}
	.st1{fill:#212121;}
	.st2{fill:#FFFFFF;}
</style>
<g>
	<path class="st0" d="M263.7,101.5h-75.7c-6,0-10.9-4.9-10.9-10.9v0c0-6,4.9-10.9,10.9-10.9h75.7c6,0,10.9,4.9,10.9,10.9v0
		C274.6,96.6,269.7,101.5,263.7,101.5z"/>
	<g>
		<g>
			<path class="st1" d="M152.9,61.3l-4.1,4.3v7.8h-7.1V42.7h7.1V57l13.6-14.3h7.9l-12.7,13.7l13.5,17h-8.3L152.9,61.3z"/>
			<path class="st1" d="M174.7,40.9h6.8v32.5h-6.8V40.9z"/>
			<path class="st1" d="M185.9,42.7c0-2.1,1.7-3.8,4.3-3.8c2.5,0,4.3,1.6,4.3,3.7c0,2.3-1.7,3.9-4.3,3.9
				C187.6,46.5,185.9,44.9,185.9,42.7z M186.7,49.8h6.8v23.6h-6.8V49.8z"/>
			<path class="st1" d="M210.1,64.1l-3.3,3.2v6H200V40.9h6.8v18.4l10-9.5h8.2l-9.8,10l10.7,13.6h-8.3L210.1,64.1z"/>
			<path class="st0" d="M257.2,65.2c0,5.2-3.9,8.2-11.5,8.2h-14.1V42.7h13.2c6.8,0,10.8,2.9,10.8,7.9c0,3.5-1.9,5.8-4.7,7
				C254.9,58.4,257.2,61,257.2,65.2z M234.8,45.4v11.1h9.8c4.9,0,7.8-1.9,7.8-5.6c0-3.7-2.8-5.6-7.8-5.6H234.8z M254,64.9
				c0-4-2.9-5.7-8.3-5.7h-10.8v11.5h10.8C251,70.7,254,69,254,64.9z"/>
			<path class="st0" d="M261,61.9c0-6.8,5-11.7,11.7-11.7c6.7,0,11.7,4.9,11.7,11.7c0,6.8-5,11.7-11.7,11.7
				C266,73.6,261,68.7,261,61.9z M281.3,61.9c0-5.4-3.6-9-8.5-9c-4.9,0-8.6,3.6-8.6,9c0,5.4,3.7,9,8.6,9
				C277.7,70.8,281.3,67.3,281.3,61.9z"/>
			<path class="st0" d="M303.8,73.4l-7.3-9.6l-7.4,9.6h-3.5l9.1-11.8L286,50.3h3.5l6.9,9l6.9-9h3.4l-8.7,11.2l9.2,11.8H303.8z"/>
		</g>
		<g>
			<polygon class="st0" points="85.7,104.6 79.2,60.6 123,73.4 112.7,81.9 116.7,86.3 112.9,89.8 105.3,81.5 112.3,75.6 85.4,67.8 
				89.4,94.8 96.8,88.6 104.4,97 100.6,100.5 96.3,95.7 			"/>
		</g>
		<g>
			<path class="st1" d="M80.5,99.7h-8.9c-9.4,0-17.1-7.7-17.1-17.1V54.1c0-9.4,7.7-17.1,17.1-17.1h28.5c9.4,0,17.1,7.7,17.1,17.1
				v12.3h-6.4V54.1c0-5.9-4.8-10.7-10.7-10.7H71.6c-5.9,0-10.7,4.8-10.7,10.7v28.5c0,5.9,4.8,10.7,10.7,10.7h8.9V99.7z"/>
		</g>
		<g>
			
				<rect x="71.9" y="52.2" transform="matrix(0.7071 -0.7071 0.7071 0.7071 -17.5873 69.0135)" class="st1" width="5.2" height="7"/>
		</g>
		<g>
			
				<rect x="83.5" y="52.4" transform="matrix(0.7071 -0.7071 0.7071 0.7071 -13.5491 77.208)" class="st1" width="5.9" height="5.2"/>
		</g>
		<g>
			
				<rect x="70.1" y="65.4" transform="matrix(0.7071 -0.7071 0.7071 0.7071 -26.5964 71.8038)" class="st1" width="6.5" height="5.2"/>
		</g>
		<g>
			<path class="st2" d="M111.4,92.3"/>
		</g>
	</g>
	<g>
		<path class="st2" d="M192.8,93.8l1.1-1.5c0.6,0.6,1.5,1.1,2.6,1.1c0.7,0,1.1-0.3,1.1-0.7c0-1.1-4.5-0.2-4.5-3.3
			c0-1.3,1.1-2.5,3.2-2.5c1.3,0,2.4,0.4,3.3,1.1l-1.1,1.5c-0.7-0.6-1.5-0.8-2.3-0.8c-0.6,0-0.9,0.2-0.9,0.6c0,1,4.5,0.3,4.5,3.3
			c0,1.6-1.2,2.7-3.3,2.7C194.7,95,193.6,94.5,192.8,93.8z"/>
		<path class="st2" d="M217.1,94.9v-3.2h-3.3v3.2h-2.1v-8h2.1v3h3.3v-3h2.1v8H217.1z"/>
		<path class="st2" d="M231.3,90.9c0-2.4,1.8-4.1,4.3-4.1c2.4,0,4.3,1.7,4.3,4.1S238,95,235.6,95C233.1,95,231.3,93.3,231.3,90.9z
			 M237.8,90.9c0-1.3-0.9-2.3-2.2-2.3c-1.3,0-2.2,1-2.2,2.3c0,1.3,0.9,2.3,2.2,2.3C236.9,93.2,237.8,92.2,237.8,90.9z"/>
		<path class="st2" d="M252,94.9v-8h4c1.8,0,2.8,1.2,2.8,2.7c0,1.4-1,2.7-2.8,2.7h-1.9v2.7H252z M256.7,89.6c0-0.6-0.4-0.9-1-0.9
			h-1.7v1.7h1.7C256.3,90.4,256.7,90.1,256.7,89.6z"/>
	</g>
</g>
</svg>
