<svg id="Capa_1" data-name="Capa 1" xmlns="http://www.w3.org/2000/svg" viewBox="0 0 26.64 26.76"><defs><style>.cls-1{fill:#fff;}</style></defs><title>Phone icon_footer_ide na 27x27_SVG_</title><path class="cls-1" d="M22.61,16.07a2.84,2.84,0,0,0-2-.93,2.88,2.88,0,0,0-2,.93L16.64,18l-.47-.24c-.21-.1-.42-.21-.59-.31a20.62,20.62,0,0,1-4.93-4.5A11.94,11.94,0,0,1,9,10.35c.49-.45,1-.92,1.39-1.37l.5-.51a2.75,2.75,0,0,0,0-4.15L9.29,2.69l-.56-.57C8.37,1.74,8,1.36,7.6,1a2.86,2.86,0,0,0-2-.88,2.93,2.93,0,0,0-2,.88h0l-2,2.06A4.4,4.4,0,0,0,.2,5.86,10.6,10.6,0,0,0,1,10.3,25.66,25.66,0,0,0,5.56,18,28.15,28.15,0,0,0,15,25.31a14.68,14.68,0,0,0,5.28,1.56h.37a4.51,4.51,0,0,0,3.46-1.49l0,0a13.24,13.24,0,0,1,1.05-1.08l.78-.77a3,3,0,0,0,.9-2.08,2.91,2.91,0,0,0-.92-2.06Zm2.14,6.31h0c-.23.26-.47.48-.73.74s-.78.76-1.16,1.19a2.86,2.86,0,0,1-2.25,1h-.28a13,13,0,0,1-4.67-1.4,26.74,26.74,0,0,1-8.85-6.93A24.46,24.46,0,0,1,2.49,9.74,8.64,8.64,0,0,1,1.82,6a2.75,2.75,0,0,1,.83-1.78l2-2a1.4,1.4,0,0,1,.92-.42,1.29,1.29,0,0,1,.87.42l0,0c.36.34.71.69,1.08,1.07l.57.58L9.78,5.47a1.14,1.14,0,0,1,0,1.86l-.51.51c-.51.52-1,1-1.51,1.46l0,0a1.23,1.23,0,0,0-.31,1.36l0,.06a13.1,13.1,0,0,0,1.94,3.16h0a22.08,22.08,0,0,0,5.33,4.85c.24.15.49.28.73.4s.42.21.6.32l.07,0a1.29,1.29,0,0,0,.59.15,1.24,1.24,0,0,0,.91-.42l2.05-2.05a1.39,1.39,0,0,1,.91-.44,1.21,1.21,0,0,1,.86.43h0l3.31,3.31A1.18,1.18,0,0,1,24.75,22.38Z" transform="translate(-0.18 -0.12)"/></svg>