<svg id="Layer_1" data-name="Layer 1" xmlns="http://www.w3.org/2000/svg" viewBox="0 0 70 70"><defs><style>.cls-1{fill:none;stroke:#000;stroke-linecap:round;stroke-linejoin:round;stroke-width:1.49px;}</style></defs><title>Home icons_Placanje Pouzecem_ide na 35x35_SVG</title><path d="M33.27,37.4l-1.14,1.15v1.6h-.88V34h.88v3.46L35.49,34h1l-2.64,2.79,2.81,3.4h-1Z"/><path d="M43.69,40.15V35.64L41.45,39.4H41L38.8,35.67v4.48H38V34h.73l2.58,4.35L43.81,34h.72v6.19Z"/><polyline class="cls-1" points="1.1 6.37 29.51 6.37 40.17 16.13 42.07 22.73"/><path class="cls-1" d="M36.24,21.84l-3.56-4.19L26.85,16.2l3,7.29a71.38,71.38,0,0,1,6.41,3.3c.57.57,2.18,3.29.28,5s-3.14-.1-3.71-.35S29.07,30,29.07,30a35.48,35.48,0,0,1-3.39-2.69c-2.57-2.19-6.47-2.22-7.9-2.07s-2.12.51-5.23-2.69a45.3,45.3,0,0,0-6.06-5.23l-4.82-.13"/><path class="cls-1" d="M31.32,23.69A11.71,11.71,0,1,1,27,28.38"/><path class="cls-1" d="M69.59,55.51s-6.82-8.4-10.65-9.57-7.2-.89-9.83.76S45.3,49,45.3,49l-6.53,3.43s-5-1.24-6.91-.89a5.62,5.62,0,0,0-2.92,1.39"/><path class="cls-1" d="M20.32,48.74l-.77-5c4.2-1.14,4.13,1.46,4.83,2.22s4.56,8,4.56,8"/><path class="cls-1" d="M47.46,56s-6.44,2.89-8,2.54a22.06,22.06,0,0,1-9-3.62c-4.66-3-9.1-5.45-9.1-5.45a4.11,4.11,0,0,0-2.91-.75c-1.91.15-2,.56-2,.56l7.79,8.56s8.51,5.8,11.74,6,15-3.11,18-2.66,6.53,5.52,6.53,5.52"/></svg>