<svg id="Layer_1" data-name="Layer 1" xmlns="http://www.w3.org/2000/svg" viewBox="0 0 205.76 205.76"><defs><style>.cls-1{fill:none;stroke:#078e00;stroke-miterlimit:10;stroke-width:10.53px;}.cls-2{fill:#078e00;}</style></defs><title>pop up_checkmark_SVG</title><circle class="cls-1" cx="102.88" cy="102.88" r="97.61"/><path class="cls-2" d="M40,109.28c4.81-4.08,9.55-8.18,14.42-12.12.43-.35,1.88.07,2.53.56,8.58,6.62,17.1,13.33,25.87,20.2,21.4-24.52,45.59-45.76,73.67-63.15a84.81,84.81,0,0,1,5.35,7.79c.4.72-.4,2.55-1.18,3.38-7,7.55-14.6,14.67-21.28,22.53-18.17,21.4-34.19,44.25-45.6,70.08-1.26,2.86-2.47,3.22-4.41,1.25Q65.17,135.2,41,110.54A14.07,14.07,0,0,1,40,109.28Z"/></svg>