<svg id="Layer_1" data-name="Layer 1" xmlns="http://www.w3.org/2000/svg" viewBox="0 0 70 70"><defs><style>.cls-1{fill:none;stroke:#000;stroke-linecap:round;stroke-linejoin:round;stroke-width:1.64px;}</style></defs><title>Home icons_Garantovan Povrat Novca_ide na 35x35_SVG</title><path class="cls-1" d="M7.11,20.7A31.34,31.34,0,0,1,66.33,34.1"/><path class="cls-1" d="M63.25,48.59A31.35,31.35,0,0,1,3.67,35.9c0-1,0-2.06.06-3.07"/><path class="cls-1" d="M7.06,20.79A31.36,31.36,0,0,1,66.18,38.22"/><path class="cls-1" d="M63.29,48.49A31.34,31.34,0,0,1,3.68,36a28.32,28.32,0,0,1,0-3.06"/><polyline class="cls-1" points="12.27 19.66 6.66 21.6 5.62 16.06"/><polyline class="cls-1" points="57.73 50.34 63.34 48.4 64.38 53.94"/><path d="M26.9,25.56V45.63H24.83V27.39H20.1V25.56Z"/><path d="M49,40.35h-4v5.28H42.87V40.35H31.54V38.86l10.64-13.3h2.29l-10.26,13h8.71V33.87h2v4.65h4Z"/></svg>